<?xml version="1.0" encoding="UTF-8" standalone="no"?>
<svg viewBox="0 0 100 100" xmlns="http://www.w3.org/2000/svg">
<g fill="none" stroke="#000000" stroke-width="0.2">
<polyline points="0,14 0,15 0,16 1,15 1,14 1,13 1,12 1,11 2,10 2,9 2,8 3,7 3,6 3,5 3,4 4,3 4,2 3,1 2,1 " />
<polyline points="4,1 5,1 5,2 5,3 4,4 4,5 4,6 4,7 3,8 3,9 3,10 2,11 2,12 2,13 " />
<polyline points="4,8 5,8 6,8 7,8 7,9 7,10 7,11 7,12 7,13 7,14 8,13 8,12 8,11 8,10 " />
<polyline points="9,12 9,13 8,14 8,15 7,16 6,16 5,16 4,16 3,16 2,16 1,16 1,17 1,18 " />
<polyline points="8,16 8,17 8,18 7,19 7,20 7,21 7,22 6,23 6,24 6,25 5,26 5,27 5,28 4,29 4,30 3,31 2,31 " />
<polyline points="4,31 5,30 5,29 6,28 6,27 6,26 7,25 7,24 7,23 8,22 8,21 8,20 8,19 9,18 9,17 9,16 9,15 9,14 " />
<polyline points="10,16 11,16 12,16 13,16 14,15 14,14 15,13 15,12 16,11 17,10 17,9 18,8 19,7 19,6 20,5 21,4 22,3 22,4 22,5 22,6 22,7 22,8 22,9 21,10 20,10 19,10 18,10 " />
<polyline points="22,10 22,11 22,12 22,13 22,14 22,15 21,16 20,16 19,16 18,16 " />
<polyline points="20,17 20,18 19,19 19,20 19,21 19,22 18,23 18,24 18,25 17,26 17,27 17,28 16,29 16,30 15,31 14,31 " />
<polyline points="16,31 17,30 17,29 18,28 18,27 18,26 19,25 19,24 19,23 20,22 20,21 20,20 20,19 21,18 21,17 22,16 23,15 23,14 23,13 23,12 23,11 23,10 23,9 23,8 23,7 23,6 23,5 23,4 23,3 23,2 23,1 " />
<polyline points="23,16 24,16 25,16 26,16 26,17 27,16 27,17 27,18 27,19 26,20 26,21 25,22 24,23 23,23 22,23 21,23 20,23 " />
<polyline points="23,24 23,25 23,26 23,27 23,28 23,29 24,28 24,27 24,26 24,25 " />
<polyline points="25,27 25,28 24,29 24,30 24,31 25,30 25,29 " />
<polyline points="25,31 26,31 27,31 28,31 29,31 30,30 30,29 31,28 31,27 32,26 33,25 33,24 34,23 35,22 35,21 36,20 37,19 38,18 38,19 38,20 38,21 38,22 38,23 38,24 37,25 36,25 35,25 34,25 " />
<polyline points="38,25 38,26 38,27 38,28 38,29 38,30 37,31 36,31 35,31 " />
<polyline points="38,31 39,30 39,29 39,28 39,27 39,26 39,25 39,24 39,23 39,22 39,21 39,20 39,19 39,18 39,17 38,16 37,15 36,16 35,16 " />
<polyline points="37,16 38,15 37,14 38,13 38,12 38,11 39,10 39,9 39,8 40,7 40,6 40,5 40,4 41,3 41,2 40,1 39,1 " />
<polyline points="41,1 42,1 42,2 42,3 41,4 41,5 41,6 41,7 40,8 40,9 40,10 39,11 39,12 39,13 38,14 39,14 " />
<polyline points="42,4 " />
<polyline points="43,1 44,1 45,1 " />
<polyline points="39,16 40,16 41,16 42,16 43,16 44,16 45,16 46,15 46,16 47,15 47,14 47,13 " />
<polyline points="39,31 40,31 41,31 " />
<polyline points="30,31 31,31 32,31 " />
<polyline points="26,22 27,21 27,20 28,19 28,18 " />
<polyline points="28,20 " />
<polyline points="28,16 29,15 29,14 30,13 30,12 30,11 31,10 31,9 31,8 31,7 32,6 32,5 32,4 33,3 33,2 32,1 31,1 " />
<polyline points="33,1 34,1 34,2 34,3 33,4 33,5 33,6 32,7 32,8 32,9 32,10 31,11 31,12 31,13 30,14 30,15 29,16 30,16 31,16 32,16 " />
<polyline points="33,7 " />
<polyline points="34,4 " />
<polyline points="35,1 36,1 " />
<polyline points="17,31 18,31 19,31 " />
<polyline points="14,16 15,16 16,16 " />
<polyline points="9,19 " />
<polyline points="7,26 " />
<polyline points="6,29 " />
<polyline points="5,31 6,31 7,31 8,31 " />
<polyline points="8,8 9,7 10,6 10,5 11,4 11,3 10,2 9,1 8,1 7,1 6,1 " />
<polyline points="10,1 11,2 12,3 12,4 11,5 11,6 10,7 " />
<polyline points="12,5 " />
<polyline points="13,51 13,52 13,53 13,54 13,55 13,56 13,57 13,58 13,59 14,60 14,61 14,62 15,63 15,64 16,65 17,65 18,66 18,67 18,68 18,69 18,70 18,71 18,72 19,71 19,72 19,73 19,74 19,75 19,76 19,77 19,78 19,79 19,80 19,81 19,82 19,83 19,84 19,85 19,86 19,87 20,88 20,89 20,90 20,91 20,92 21,93 21,94 21,95 21,96 " />
<polyline points="22,94 22,93 22,92 23,91 23,90 23,89 23,88 23,87 23,86 23,85 23,84 23,83 24,82 24,81 24,80 24,79 24,78 24,77 24,76 24,75 24,74 24,73 24,72 24,71 24,70 25,69 25,68 25,67 26,66 26,67 26,68 27,68 27,69 27,70 28,70 28,71 29,71 30,70 30,69 31,69 32,68 33,68 34,68 35,68 36,69 37,69 38,69 39,70 40,71 40,72 41,71 41,70 42,69 42,70 43,69 43,70 44,71 44,72 45,72 46,72 47,72 48,71 49,71 50,70 51,69 51,70 51,71 51,72 51,73 51,74 51,75 51,76 51,77 51,78 51,79 51,80 51,81 51,82 51,83 51,84 51,85 51,86 51,87 50,88 49,88 49,89 48,90 47,90 46,90 45,91 44,91 43,92 42,92 42,93 42,94 42,95 42,96 42,97 42,98 " />
<polyline points="46,91 " />
<polyline points="51,88 51,89 52,90 52,91 52,92 52,93 53,94 53,95 53,96 53,97 53,98 54,98 55,97 55,96 56,95 56,94 57,93 57,92 57,91 57,90 57,89 57,88 57,87 57,86 57,85 57,84 57,83 58,84 59,83 59,82 59,81 59,80 59,79 59,78 59,77 59,76 59,75 59,74 59,73 59,72 59,71 59,70 59,69 58,68 58,67 59,66 60,65 60,66 61,65 61,64 62,64 63,63 64,63 65,62 66,62 67,61 68,60 69,59 69,58 70,57 70,56 71,55 71,54 71,53 72,52 72,51 72,50 72,49 71,48 70,48 69,48 68,49 67,49 66,49 65,49 64,50 63,50 62,51 61,51 60,52 59,52 58,52 57,53 56,54 55,54 54,55 53,55 52,56 51,57 50,57 49,57 48,57 47,57 46,57 45,56 44,55 43,55 42,55 41,54 41,53 41,52 40,51 39,51 38,51 37,51 36,52 35,52 34,53 33,54 32,54 31,55 30,56 29,57 28,57 27,57 26,56 25,55 24,54 23,53 23,52 22,51 21,50 20,50 19,49 18,48 17,48 16,47 15,47 14,47 14,48 14,49 14,50 " />
<polyline points="41,51 " />
<polyline points="41,55 41,56 " />
<polyline points="45,55 " />
<polyline points="45,57 " />
<polyline points="72,48 " />
<polyline points="59,84 " />
<polyline points="56,96 " />
<polyline points="55,98 " />
<polyline points="52,70 " />
<polyline points="24,86 25,87 26,88 27,88 27,89 28,90 29,90 29,91 30,91 31,91 32,91 33,91 33,92 33,93 33,94 33,95 33,96 33,97 33,98 33,99 " />
<polyline points="26,77 26,78 26,79 26,80 26,81 27,81 28,81 29,81 30,80 30,79 29,78 28,77 27,77 " />
<polyline points="30,81 " />
<polyline points="32,85 33,85 33,86 34,85 35,85 " />
<polyline points="36,89 37,89 38,89 39,88 39,89 40,88 " />
<polyline points="39,78 39,79 39,80 39,81 40,81 41,81 42,81 43,81 44,81 45,81 46,81 47,80 47,81 48,80 48,79 47,78 46,77 45,76 44,76 43,76 42,76 41,77 40,77 40,78 " />
<polyline points="46,76 47,77 48,78 " />
<polyline points="45,23 45,24 45,25 45,26 45,27 45,28 46,27 46,26 46,25 46,24 46,23 46,22 46,21 47,20 47,19 48,18 48,19 48,20 47,21 47,22 47,23 " />
<polyline points="49,18 49,17 50,17 51,16 52,15 52,14 52,13 52,12 52,11 52,10 53,9 53,8 53,7 53,6 53,5 53,4 53,3 53,2 52,1 51,1 " />
<polyline points="53,1 54,1 54,2 54,3 54,4 54,5 54,6 54,7 54,8 54,9 53,10 53,11 53,12 53,13 53,14 53,15 52,16 53,16 54,16 55,16 56,17 57,18 57,19 57,20 " />
<polyline points="58,17 58,16 " />
<polyline points="54,14 54,13 55,12 56,11 56,10 57,9 58,8 58,7 59,6 60,5 60,4 61,3 62,2 62,3 62,4 62,5 61,6 61,7 61,8 61,9 61,10 61,11 61,12 61,13 61,14 61,15 61,16 62,15 62,14 62,13 62,12 62,11 62,10 62,9 62,8 62,7 62,6 63,5 63,4 63,3 63,2 63,1 " />
<polyline points="63,13 63,14 " />
<polyline points="64,12 65,11 65,10 66,9 66,8 67,7 68,6 68,5 69,4 70,3 70,2 69,1 70,1 71,1 72,1 " />
<polyline points="62,16 63,16 63,17 63,18 62,19 62,20 62,21 62,22 61,23 61,24 61,25 60,26 60,27 60,28 59,29 59,30 58,31 57,31 " />
<polyline points="59,31 60,30 60,29 61,28 61,27 61,26 62,25 62,24 62,23 63,22 63,21 63,20 63,19 64,18 64,17 64,16 65,16 66,16 67,16 68,16 69,15 69,14 70,13 70,12 71,11 72,10 72,9 73,8 74,7 74,6 75,5 76,4 77,3 77,4 77,5 77,6 77,7 77,8 77,9 76,10 75,10 74,10 73,10 " />
<polyline points="77,10 77,11 77,12 77,13 77,14 77,15 76,16 75,16 74,16 73,16 72,16 71,16 70,16 69,16 69,17 68,18 67,19 66,20 65,21 64,22 63,23 64,23 65,23 66,24 66,25 66,26 66,27 66,28 66,29 66,30 66,31 67,30 67,29 67,28 67,27 67,26 67,25 " />
<polyline points="67,31 68,31 " />
<polyline points="70,17 " />
<polyline points="73,17 " />
<polyline points="77,16 78,15 78,14 78,13 78,12 78,11 78,10 78,9 78,8 78,7 78,6 78,5 78,4 78,3 78,2 78,1 " />
<polyline points="78,16 79,16 80,16 " />
<polyline points="64,19 " />
<polyline points="60,31 61,31 62,31 " />
<polyline points="54,10 " />
<polyline points="55,1 56,1 " />
<polyline points="46,28 46,29 47,29 47,30 48,31 49,31 50,31 51,31 52,31 53,30 54,29 54,30 54,31 " />
<polyline points="55,29 55,28 55,27 " />
<polyline points="83,16 84,16 85,16 86,15 86,16 87,15 87,14 87,13 87,12 87,11 88,10 88,9 88,8 88,7 88,6 88,5 88,4 88,3 88,2 87,1 86,2 85,3 84,4 84,5 " />
<polyline points="88,1 89,2 89,3 89,4 89,5 89,6 89,7 89,8 89,9 89,10 88,11 88,12 88,13 88,14 " />
<polyline points="89,11 " />
<polyline points="90,8 90,7 91,6 91,5 92,4 93,3 94,2 95,1 96,1 97,1 97,2 " />
<polyline points="87,16 88,16 89,16 90,16 " />
</g></svg>
